<mxfile host="app.diagrams.net" modified="2024-04-04T01:49:14.693Z" agent="Mozilla/5.0 (X11; Ubuntu; Linux x86_64; rv:124.0) Gecko/20100101 Firefox/124.0" etag="J1-sKcpI-HmAla8Iv1JA" version="24.2.2" type="device">
  <diagram name="MVP Diagram" id="QGUymX_L18p_hUsMqQyJ">
    <mxGraphModel dx="1185" dy="605" grid="1" gridSize="10" guides="1" tooltips="1" connect="1" arrows="1" fold="1" page="1" pageScale="1" pageWidth="850" pageHeight="1100" math="0" shadow="0">
      <root>
        <mxCell id="0" />
        <mxCell id="1" parent="0" />
        <mxCell id="NcB8pCQ65t_ctHMp_CGm-4" value="" style="group" vertex="1" connectable="0" parent="1">
          <mxGeometry x="160" y="520" width="120" height="60" as="geometry" />
        </mxCell>
        <mxCell id="NcB8pCQ65t_ctHMp_CGm-2" value="" style="rounded=1;whiteSpace=wrap;html=1;" vertex="1" parent="NcB8pCQ65t_ctHMp_CGm-4">
          <mxGeometry width="120" height="60" as="geometry" />
        </mxCell>
        <mxCell id="NcB8pCQ65t_ctHMp_CGm-3" value="Client Browser" style="text;html=1;align=center;verticalAlign=middle;whiteSpace=wrap;rounded=0;" vertex="1" parent="NcB8pCQ65t_ctHMp_CGm-4">
          <mxGeometry y="15" width="120" height="30" as="geometry" />
        </mxCell>
        <mxCell id="NcB8pCQ65t_ctHMp_CGm-8" value="" style="whiteSpace=wrap;html=1;aspect=fixed;" vertex="1" parent="1">
          <mxGeometry x="120" y="230" width="200" height="200" as="geometry" />
        </mxCell>
        <mxCell id="NcB8pCQ65t_ctHMp_CGm-11" style="edgeStyle=orthogonalEdgeStyle;rounded=0;orthogonalLoop=1;jettySize=auto;html=1;" edge="1" parent="1" source="NcB8pCQ65t_ctHMp_CGm-2" target="NcB8pCQ65t_ctHMp_CGm-8">
          <mxGeometry relative="1" as="geometry" />
        </mxCell>
        <mxCell id="NcB8pCQ65t_ctHMp_CGm-21" value="Webpage HTML" style="edgeLabel;html=1;align=center;verticalAlign=middle;resizable=0;points=[];" vertex="1" connectable="0" parent="NcB8pCQ65t_ctHMp_CGm-11">
          <mxGeometry x="-0.181" y="-2" relative="1" as="geometry">
            <mxPoint as="offset" />
          </mxGeometry>
        </mxCell>
        <mxCell id="NcB8pCQ65t_ctHMp_CGm-12" value="Browser Extension" style="text;html=1;align=left;verticalAlign=middle;whiteSpace=wrap;rounded=0;perimeterSpacing=0;strokeColor=default;" vertex="1" parent="1">
          <mxGeometry x="120" y="230" width="200" height="30" as="geometry" />
        </mxCell>
        <mxCell id="NcB8pCQ65t_ctHMp_CGm-18" value="" style="group;shadow=0;" vertex="1" connectable="0" parent="1">
          <mxGeometry x="130" y="330" width="180" height="30" as="geometry" />
        </mxCell>
        <mxCell id="NcB8pCQ65t_ctHMp_CGm-19" value="" style="rounded=1;whiteSpace=wrap;html=1;shadow=1;" vertex="1" parent="NcB8pCQ65t_ctHMp_CGm-18">
          <mxGeometry width="180" height="30" as="geometry" />
        </mxCell>
        <mxCell id="NcB8pCQ65t_ctHMp_CGm-20" value="Chat" style="text;html=1;align=center;verticalAlign=middle;whiteSpace=wrap;rounded=0;" vertex="1" parent="NcB8pCQ65t_ctHMp_CGm-18">
          <mxGeometry y="7.5" width="180" height="15" as="geometry" />
        </mxCell>
        <mxCell id="NcB8pCQ65t_ctHMp_CGm-25" value="" style="group" vertex="1" connectable="0" parent="1">
          <mxGeometry x="130" y="290" width="180" height="30" as="geometry" />
        </mxCell>
        <mxCell id="NcB8pCQ65t_ctHMp_CGm-26" value="" style="rounded=1;whiteSpace=wrap;html=1;shadow=1;" vertex="1" parent="NcB8pCQ65t_ctHMp_CGm-25">
          <mxGeometry width="180" height="30" as="geometry" />
        </mxCell>
        <mxCell id="NcB8pCQ65t_ctHMp_CGm-27" value="Web Summarize" style="text;html=1;align=center;verticalAlign=middle;whiteSpace=wrap;rounded=0;" vertex="1" parent="NcB8pCQ65t_ctHMp_CGm-25">
          <mxGeometry y="7.5" width="180" height="15" as="geometry" />
        </mxCell>
        <mxCell id="NcB8pCQ65t_ctHMp_CGm-38" value="" style="group" vertex="1" connectable="0" parent="1">
          <mxGeometry x="560" y="230" width="200" height="200" as="geometry" />
        </mxCell>
        <mxCell id="NcB8pCQ65t_ctHMp_CGm-30" value="" style="whiteSpace=wrap;html=1;aspect=fixed;" vertex="1" parent="NcB8pCQ65t_ctHMp_CGm-38">
          <mxGeometry width="200" height="200" as="geometry" />
        </mxCell>
        <mxCell id="NcB8pCQ65t_ctHMp_CGm-31" value="Simple Script API" style="text;html=1;align=left;verticalAlign=middle;whiteSpace=wrap;rounded=0;perimeterSpacing=0;strokeColor=default;" vertex="1" parent="NcB8pCQ65t_ctHMp_CGm-38">
          <mxGeometry width="200" height="30" as="geometry" />
        </mxCell>
        <mxCell id="NcB8pCQ65t_ctHMp_CGm-32" value="" style="group" vertex="1" connectable="0" parent="NcB8pCQ65t_ctHMp_CGm-38">
          <mxGeometry x="10" y="60" width="180" height="30" as="geometry" />
        </mxCell>
        <mxCell id="NcB8pCQ65t_ctHMp_CGm-33" value="" style="rounded=1;whiteSpace=wrap;html=1;shadow=1;" vertex="1" parent="NcB8pCQ65t_ctHMp_CGm-32">
          <mxGeometry width="180" height="30" as="geometry" />
        </mxCell>
        <mxCell id="NcB8pCQ65t_ctHMp_CGm-34" value="Web Summarize" style="text;html=1;align=center;verticalAlign=middle;whiteSpace=wrap;rounded=0;" vertex="1" parent="NcB8pCQ65t_ctHMp_CGm-32">
          <mxGeometry y="7.5" width="180" height="15" as="geometry" />
        </mxCell>
        <mxCell id="NcB8pCQ65t_ctHMp_CGm-39" style="edgeStyle=orthogonalEdgeStyle;rounded=0;orthogonalLoop=1;jettySize=auto;html=1;entryX=0;entryY=0.5;entryDx=0;entryDy=0;" edge="1" parent="1" source="NcB8pCQ65t_ctHMp_CGm-27" target="NcB8pCQ65t_ctHMp_CGm-34">
          <mxGeometry relative="1" as="geometry" />
        </mxCell>
        <mxCell id="NcB8pCQ65t_ctHMp_CGm-40" value="/chatbot/&amp;lt;model&amp;gt;:summarize" style="edgeLabel;html=1;align=center;verticalAlign=middle;resizable=0;points=[];" vertex="1" connectable="0" parent="NcB8pCQ65t_ctHMp_CGm-39">
          <mxGeometry x="0.0703" y="1" relative="1" as="geometry">
            <mxPoint as="offset" />
          </mxGeometry>
        </mxCell>
        <mxCell id="NcB8pCQ65t_ctHMp_CGm-42" value="" style="group" vertex="1" connectable="0" parent="1">
          <mxGeometry x="920" y="230" width="200" height="200" as="geometry" />
        </mxCell>
        <mxCell id="NcB8pCQ65t_ctHMp_CGm-43" value="" style="whiteSpace=wrap;html=1;aspect=fixed;" vertex="1" parent="NcB8pCQ65t_ctHMp_CGm-42">
          <mxGeometry width="200" height="200" as="geometry" />
        </mxCell>
        <mxCell id="NcB8pCQ65t_ctHMp_CGm-44" value="Google Cloud" style="text;html=1;align=left;verticalAlign=middle;whiteSpace=wrap;rounded=0;perimeterSpacing=0;strokeColor=default;" vertex="1" parent="NcB8pCQ65t_ctHMp_CGm-42">
          <mxGeometry width="200" height="30" as="geometry" />
        </mxCell>
        <mxCell id="NcB8pCQ65t_ctHMp_CGm-45" value="" style="group" vertex="1" connectable="0" parent="NcB8pCQ65t_ctHMp_CGm-42">
          <mxGeometry x="10" y="60" width="180" height="30" as="geometry" />
        </mxCell>
        <mxCell id="NcB8pCQ65t_ctHMp_CGm-46" value="" style="rounded=1;whiteSpace=wrap;html=1;shadow=1;" vertex="1" parent="NcB8pCQ65t_ctHMp_CGm-45">
          <mxGeometry width="180" height="30" as="geometry" />
        </mxCell>
        <mxCell id="NcB8pCQ65t_ctHMp_CGm-47" value="Gemini" style="text;html=1;align=center;verticalAlign=middle;whiteSpace=wrap;rounded=0;" vertex="1" parent="NcB8pCQ65t_ctHMp_CGm-45">
          <mxGeometry y="7.5" width="180" height="15" as="geometry" />
        </mxCell>
        <mxCell id="NcB8pCQ65t_ctHMp_CGm-53" value="" style="group" vertex="1" connectable="0" parent="NcB8pCQ65t_ctHMp_CGm-42">
          <mxGeometry x="10" y="140" width="180" height="30" as="geometry" />
        </mxCell>
        <mxCell id="NcB8pCQ65t_ctHMp_CGm-54" value="" style="rounded=1;whiteSpace=wrap;html=1;shadow=1;" vertex="1" parent="NcB8pCQ65t_ctHMp_CGm-53">
          <mxGeometry width="180" height="30" as="geometry" />
        </mxCell>
        <mxCell id="NcB8pCQ65t_ctHMp_CGm-58" value="Embeddings" style="text;html=1;align=center;verticalAlign=middle;whiteSpace=wrap;rounded=0;" vertex="1" parent="NcB8pCQ65t_ctHMp_CGm-53">
          <mxGeometry y="7.5" width="180" height="15" as="geometry" />
        </mxCell>
        <mxCell id="NcB8pCQ65t_ctHMp_CGm-60" style="edgeStyle=orthogonalEdgeStyle;rounded=0;orthogonalLoop=1;jettySize=auto;html=1;entryX=0.5;entryY=1;entryDx=0;entryDy=0;" edge="1" parent="NcB8pCQ65t_ctHMp_CGm-42" source="NcB8pCQ65t_ctHMp_CGm-54" target="NcB8pCQ65t_ctHMp_CGm-46">
          <mxGeometry relative="1" as="geometry" />
        </mxCell>
        <mxCell id="NcB8pCQ65t_ctHMp_CGm-61" value="Context" style="edgeLabel;html=1;align=center;verticalAlign=middle;resizable=0;points=[];" vertex="1" connectable="0" parent="NcB8pCQ65t_ctHMp_CGm-60">
          <mxGeometry x="-0.1733" relative="1" as="geometry">
            <mxPoint as="offset" />
          </mxGeometry>
        </mxCell>
        <mxCell id="NcB8pCQ65t_ctHMp_CGm-50" value="" style="group;shadow=0;" vertex="1" connectable="0" parent="1">
          <mxGeometry x="570" y="330" width="180" height="30" as="geometry" />
        </mxCell>
        <mxCell id="NcB8pCQ65t_ctHMp_CGm-51" value="" style="rounded=1;whiteSpace=wrap;html=1;shadow=1;" vertex="1" parent="NcB8pCQ65t_ctHMp_CGm-50">
          <mxGeometry width="180" height="30" as="geometry" />
        </mxCell>
        <mxCell id="NcB8pCQ65t_ctHMp_CGm-52" value="Chat" style="text;html=1;align=center;verticalAlign=middle;whiteSpace=wrap;rounded=0;" vertex="1" parent="NcB8pCQ65t_ctHMp_CGm-50">
          <mxGeometry y="7.5" width="180" height="15" as="geometry" />
        </mxCell>
        <mxCell id="NcB8pCQ65t_ctHMp_CGm-63" style="edgeStyle=orthogonalEdgeStyle;rounded=0;orthogonalLoop=1;jettySize=auto;html=1;entryX=0;entryY=0.5;entryDx=0;entryDy=0;" edge="1" parent="1" source="NcB8pCQ65t_ctHMp_CGm-52" target="NcB8pCQ65t_ctHMp_CGm-58">
          <mxGeometry relative="1" as="geometry" />
        </mxCell>
        <mxCell id="NcB8pCQ65t_ctHMp_CGm-64" value="Embed Doc" style="edgeLabel;html=1;align=center;verticalAlign=middle;resizable=0;points=[];" vertex="1" connectable="0" parent="NcB8pCQ65t_ctHMp_CGm-63">
          <mxGeometry x="0.4727" y="-2" relative="1" as="geometry">
            <mxPoint as="offset" />
          </mxGeometry>
        </mxCell>
        <mxCell id="NcB8pCQ65t_ctHMp_CGm-72" style="edgeStyle=orthogonalEdgeStyle;rounded=0;orthogonalLoop=1;jettySize=auto;html=1;exitX=0.5;exitY=1;exitDx=0;exitDy=0;entryX=0.5;entryY=1;entryDx=0;entryDy=0;" edge="1" parent="1" source="NcB8pCQ65t_ctHMp_CGm-65" target="NcB8pCQ65t_ctHMp_CGm-51">
          <mxGeometry relative="1" as="geometry" />
        </mxCell>
        <mxCell id="NcB8pCQ65t_ctHMp_CGm-65" value="" style="ellipse;whiteSpace=wrap;html=1;aspect=fixed;fillColor=#000000;" vertex="1" parent="1">
          <mxGeometry x="800" y="300" width="10" height="10" as="geometry" />
        </mxCell>
        <mxCell id="NcB8pCQ65t_ctHMp_CGm-71" style="edgeStyle=orthogonalEdgeStyle;rounded=0;orthogonalLoop=1;jettySize=auto;html=1;entryX=1;entryY=0.5;entryDx=0;entryDy=0;startArrow=classic;startFill=1;" edge="1" parent="1" source="NcB8pCQ65t_ctHMp_CGm-46" target="NcB8pCQ65t_ctHMp_CGm-34">
          <mxGeometry relative="1" as="geometry" />
        </mxCell>
        <mxCell id="NcB8pCQ65t_ctHMp_CGm-73" value="gRPC" style="edgeLabel;html=1;align=center;verticalAlign=middle;resizable=0;points=[];" vertex="1" connectable="0" parent="NcB8pCQ65t_ctHMp_CGm-71">
          <mxGeometry x="0.0185" y="1" relative="1" as="geometry">
            <mxPoint as="offset" />
          </mxGeometry>
        </mxCell>
        <mxCell id="NcB8pCQ65t_ctHMp_CGm-74" style="edgeStyle=orthogonalEdgeStyle;rounded=0;orthogonalLoop=1;jettySize=auto;html=1;" edge="1" parent="1" source="NcB8pCQ65t_ctHMp_CGm-20" target="NcB8pCQ65t_ctHMp_CGm-52">
          <mxGeometry relative="1" as="geometry" />
        </mxCell>
        <mxCell id="NcB8pCQ65t_ctHMp_CGm-75" value="Websocket" style="edgeLabel;html=1;align=center;verticalAlign=middle;resizable=0;points=[];" vertex="1" connectable="0" parent="NcB8pCQ65t_ctHMp_CGm-74">
          <mxGeometry x="-0.0846" y="-1" relative="1" as="geometry">
            <mxPoint as="offset" />
          </mxGeometry>
        </mxCell>
      </root>
    </mxGraphModel>
  </diagram>
</mxfile>
